<?xml version="1.0" encoding="UTF-8"?>
<svg id="Camada_1" data-name="Camada 1" xmlns="http://www.w3.org/2000/svg" version="1.1" xmlns:xlink="http://www.w3.org/1999/xlink" viewBox="0 0 748.4 252.3">
  <defs>
    <style>
      .cls-1 {
        fill: url(#Gradiente_sem_nome_2);
      }

      .cls-1, .cls-2, .cls-3 {
        stroke-width: 0px;
      }

      .cls-2 {
        fill: none;
      }

      .cls-3 {
        fill: #44266c;
      }

      .cls-4 {
        clip-path: url(#clippath);
      }
    </style>
    <clipPath id="clippath">
      <path class="cls-2" d="M85,217.5h38.5v-68.7h-38.5v68.7ZM133.3,217.5h38.5v-120.4h-38.5v120.4ZM36.8,217.5h38.5V62.6h-38.5v154.9ZM181.6,217.5h38.5V34.2h-38.5v183.2Z"/>
    </clipPath>
    <linearGradient id="Gradiente_sem_nome_2" data-name="Gradiente sem nome 2" x1="-5101.8" y1="1092.1" x2="-5100.8" y2="1092.1" gradientTransform="translate(-135918.3 635633.9) rotate(90) scale(124.6 -124.6)" gradientUnits="userSpaceOnUse">
      <stop offset="0" stop-color="#e7b725"/>
      <stop offset="1" stop-color="#e63b23"/>
    </linearGradient>
  </defs>
  <rect class="cls-3" x="259.5" y="153.2" width="16.3" height="64.2"/>
  <path class="cls-3" d="M267.7,121.8c-6,0-10.7,4.7-10.7,10.7s4.7,10.7,10.7,10.7,10.7-4.7,10.7-10.7-4.7-10.7-10.7-10.7"/>
  <path class="cls-3" d="M322.3,151.6c-13.6,0-19.2,11-19.2,11v-9.4h-15.2v64.2h16.3v-42.4s4.3-8.3,12.7-8.3,12.7,3.9,12.7,13.1v37.5h16.3v-41.6c0-15.4-11.1-24.3-23.6-24.3"/>
  <path class="cls-3" d="M401.7,161.6s-6-10-19.4-10-31.3,14-31.3,33.7,14.6,33.7,31.3,33.7,16-5.6,18.2-8.3v7.7c0,9.6-5.7,16.5-18.3,16.5s-21.3-9.5-21.3-9.5l-9.2,12.5s12.1,12.2,30.5,12.2,34.6-9.9,34.6-32.3v-64.8h-15v8.4ZM400.5,195s-4.7,8.9-15.3,8.9-17.6-8-17.6-18.6,6.6-18.6,17.6-18.6,15.3,8.9,15.3,8.9v19.2Z"/>
  <path class="cls-3" d="M459.1,151.6c-11.9,0-17.5,11-17.5,11v-9.4h-15.4v64.2h16.3v-42s4.5-8.7,14.4-8.7,7.7,1.5,7.7,1.5l5.7-14.6s-5.3-2-11.1-2"/>
  <path class="cls-3" d="M497.6,151.6c-18.6,0-32.3,14.9-32.3,33.7s15,33.7,34.6,33.7,25.7-9.2,25.7-9.2l-8.1-12.2s-6.4,6.5-17.6,6.5-16.8-7.3-18-13h48c.1-2.4.1-4.9.1-6.1,0-19.8-14.8-33.5-32.4-33.5M481.9,179.4c.5-5.7,5.3-13,15.7-13s15.9,7.5,16.1,13h-31.8Z"/>
  <path class="cls-3" d="M566.3,179.1c-10.8-2.3-15.2-3.3-15.2-7.2s5.6-6.1,11.7-6.1c8.7,0,16,5.6,16,5.6l8.1-11.9s-9.6-7.9-24.1-7.9-27.6,10-27.6,20.1,11.1,17.6,23.9,20.3c9.8,2,12.7,2.8,12.7,7s-5.6,5.8-12.2,5.8c-10.8,0-19.4-9.2-19.4-9.2l-9.1,11.8s10.2,11.7,29,11.7,28.1-8.8,28.1-19.8-9.1-17.5-21.8-20.2"/>
  <path class="cls-3" d="M625,179.1c-10.8-2.3-15.2-3.3-15.2-7.2s5.6-6.1,11.7-6.1c8.7,0,16,5.6,16,5.6l8.1-11.9s-9.6-7.9-24.1-7.9-27.6,10-27.6,20.1,11.1,17.6,23.9,20.3c9.8,2,12.7,2.8,12.7,7s-5.6,5.8-12.2,5.8c-10.8,0-19.4-9.2-19.4-9.2l-9.1,11.8s10.2,11.7,29,11.7,28.1-8.8,28.1-19.8-9.1-17.5-21.8-20.2"/>
  <path class="cls-3" d="M682.5,151.6c-19.1,0-34.3,14.8-34.3,33.7s15.2,33.7,34.3,33.7,34.3-14.9,34.3-33.7-15.2-33.7-34.3-33.7M682.5,203.9c-11,0-17.8-8.5-17.8-18.6s6.8-18.6,17.8-18.6,17.8,8.5,17.8,18.6-6.8,18.6-17.8,18.6"/>
  <g class="cls-4">
    <rect class="cls-1" x="36.8" y="34.2" width="183.2" height="183.2"/>
  </g>
  <path class="cls-3" d="M540.1,71c-1.3-1.9-6.9-9.4-17.4-9.4s-24,10.4-24,25.4,10.6,25.4,24,25.4,17.9-10.2,17.9-10.2v8.9h5V31.1h-5.4v39.9ZM540,95.8s-5.3,11.2-17.3,11.2-18.3-8.8-18.3-20,7.5-20,18.3-20,17.3,11.2,17.3,11.2v17.6Z"/>
  <path class="cls-3" d="M572.2,61.6c-14.4,0-24.5,11.4-24.5,25.4s10.2,25.4,24.5,25.4,24.5-11.4,24.5-25.4-10.2-25.4-24.5-25.4M572.2,107c-12.1,0-18.8-9.1-18.8-20s6.8-20,18.8-20,18.8,9.1,18.8,20-6.8,20-18.8,20"/>
  <polygon class="cls-3" points="310.6 111.2 316.1 111.2 316.1 31.1 310.8 31.1 310.6 111.2"/>
  <path class="cls-3" d="M361.9,96.5s-4.2,10.6-14.9,10.6-13.7-4.2-13.7-14.2v-30h-5.5v30.8c0,13.1,8.9,18.7,18.1,18.7s16.5-9.8,16.5-9.8v8.6h5v-48.3h-5.5v33.6Z"/>
  <path class="cls-3" d="M401.9,61.6c-11,0-16.2,7-17.5,8.9V31.1h-5.4v80h5v-8.2s5.2,9.4,17.9,9.4,24-10.4,24-25.4-10.6-25.4-24-25.4M401.9,107.1c-12.5,0-17.4-10.3-17.4-10.3v-19.5s4.9-10.3,17.4-10.3,18.3,8.8,18.3,20-7.5,20-18.3,20"/>
  <path class="cls-3" d="M452.1,61.6c-14.4,0-23.8,11.8-23.8,25.4s10.4,25.4,24.8,25.4,15.6-4.2,20.2-9.8l-3.7-3.8c-3.3,4.1-9.1,8.3-16.5,8.3-12.8,0-18.8-10.5-19.3-17.8h41.6c.1-1.2.1-1.3.1-2.2,0-14.8-10.6-25.4-23.4-25.4M434,84.2c.2-5.3,4.7-17.2,18.1-17.2s17.5,11.6,17.7,17.2h-35.8Z"/>
  <path class="cls-3" d="M284.3,107.1c-11.5,0-19.2-9.3-19.2-20s7.6-20,19.2-20,15.4,7.2,15.4,7.2l3.9-3.5s-6.7-9.1-19.3-9.1-24.9,11.4-24.9,25.4,10.5,25.4,24.9,25.4,19.8-9.8,19.8-9.8l-3.8-3.6s-5.3,8-16,8"/>
</svg>